<svg width="48" height="48" viewBox="0 0 48 48" fill="none" xmlns="http://www.w3.org/2000/svg">
<path d="M44.955 28.0612C44.955 28.0612 44.1262 26.4 43.9537 25.2112C43.7437 23.76 43.47 22.9387 43.3462 21.9637C43.1812 20.6737 42.765 20.0887 42.555 19.7475L42.3975 21.7012C42.3975 21.7012 41.5425 23.5425 42.4237 25.5562C43.6012 28.245 43.6387 28.0912 43.6387 28.0912L44.955 28.0612Z" fill="#858585"/>
<path d="M43.1625 32.655C42.2887 31.4775 42.0862 30.57 42.3187 29.3025C42.555 28.005 43.0275 26.985 44.2987 27.06C45.195 27.1125 45.8025 27.8513 45.5925 29.3025C45.4575 30.2213 44.835 30.66 45.0637 31.5975C45.3787 32.8913 46.245 33.03 46.4137 33.3413C46.5825 33.6488 44.4225 34.3538 43.1625 32.655Z" fill="#5D6265"/>
<path d="M19.5638 31.8113L15.525 33.3938C15.525 33.3938 16.74 34.95 16.7925 35.4788C16.845 36.0075 16.845 38.5688 16.7663 38.8838C16.6875 39.1988 15.4725 40.9425 15.87 41.3925C16.2675 41.8425 17.4788 42 18.51 41.895C19.5413 41.79 20.3063 40.9725 20.3588 40.6012C20.4113 40.23 20.4638 37.9875 20.5163 37.4325C20.5688 36.8775 21.2288 32.9437 21.2288 32.9437L19.5638 31.8113ZM35.745 31.9688L33.0525 33.4725C33.0525 33.4725 33.2888 34.74 33.1313 35.4525C32.9738 36.165 32.235 36.9038 32.5763 37.3275C32.9213 37.7513 34.2938 37.725 34.98 37.6725C35.6663 37.62 36.3525 37.2487 36.4575 36.8812C36.5625 36.51 36.5888 32.13 36.5888 32.13L35.745 31.9688ZM21.57 22.125L10.2713 27.1125L5.94378 25.0012C5.94378 25.0012 5.80878 25.8713 5.86503 26.4C5.97003 27.375 6.49878 30.2025 10.5638 30.81C14.6288 31.4175 17.6363 29.4113 17.6363 29.4113L25.3163 25.3988L21.57 22.125Z" fill="#858585"/>
<path d="M17.8725 9.51377C17.8725 9.51377 13.4062 8.95126 10.6387 11.52C7.87123 14.0888 8.01373 17.925 8.01373 18.9825C8.01373 20.04 8.15623 20.7413 7.76623 21.4125C7.37623 22.08 5.93998 23.34 5.91373 25.0275C5.89123 26.37 16.8075 26.1975 16.8075 26.1975C16.8075 26.1975 18.7237 26.0213 19.7512 25.0725C20.7787 24.1238 21.285 22.9425 21.285 22.9425C21.285 22.9425 21.7912 24.8513 20.2762 26.19C19.2487 27.0975 17.8762 27.15 17.8762 27.15C17.8762 27.15 17.7 28.5938 15.9975 29.8238C14.5575 30.8663 12.8437 30.8813 12.8437 30.8813C12.8437 30.8813 13.6875 33.27 17.625 34.3613C21.5587 35.4525 22.8375 35.3813 22.8375 35.3813C22.8375 35.3813 23.4037 38.97 23.4412 39.6413C23.475 40.3088 23.1937 43.62 23.37 43.935C23.5462 44.25 24.6825 45.165 25.7812 45.06C26.88 44.955 27.3412 43.7588 27.3412 43.2638C27.3412 42.7725 27.165 40.2713 27.1275 39.78C27.0937 39.2888 27.4462 36.0863 27.4462 36.0863C27.4462 36.0863 29.2537 36.2625 31.4887 35.6288C33.7237 34.995 34.9612 33.1988 36.5587 33.1313C38.1562 33.0638 39.3225 34.4325 39.2887 35.91C39.255 37.3875 38.58 38.8313 38.865 39.255C39.15 39.6788 39.8212 39.96 40.815 39.9225C41.8087 39.8888 42.66 39.3938 42.765 39.0075C42.87 38.6213 42.9787 34.2563 43.0125 33.5513C43.0462 32.8463 44.0062 28.7288 44.1487 26.055C44.2912 23.3813 43.7587 20.2125 42.4462 18.63C41.1337 17.0475 39.4687 16.3763 38.8312 16.2C38.1937 16.0238 36.1687 15.8625 35.535 15.5663C32.52 14.16 31.1737 10.1813 25.5375 8.70376C22.3537 7.87126 18.7537 9.22877 17.8725 9.51377Z" fill="#ADADB7"/>
<path d="M10.5 22.6087C6.80622 22.3987 5.94372 24.1575 5.85372 25.4962C5.74872 27.0787 7.25247 29.475 10.0087 30C13.3537 30.6337 16.4325 29.7525 16.8 26.655C17.1525 23.7 12.75 22.7362 10.5 22.6087Z" fill="#DFDFDF"/>
<path d="M18.2437 20.0025C18.2437 20.8388 17.715 21.5513 17.1712 21.5175C16.6387 21.4838 16.2037 20.8388 16.2037 20.0025C16.2037 19.1663 16.6425 18.57 17.1712 18.4875C17.8575 18.3825 18.2437 19.1663 18.2437 20.0025Z" fill="#333333"/>
<path d="M9.55497 20.2837C10.0665 20.2837 10.4812 19.6458 10.4812 18.8587C10.4812 18.0717 10.0665 17.4337 9.55497 17.4337C9.04342 17.4337 8.62872 18.0717 8.62872 18.8587C8.62872 19.6458 9.04342 20.2837 9.55497 20.2837Z" fill="#333333"/>
<path d="M13.5076 27.7587C14.0999 27.4661 14.4121 26.8888 14.2048 26.4691C13.9975 26.0494 13.3493 25.9464 12.7569 26.239C12.1646 26.5315 11.8524 27.1089 12.0597 27.5286C12.267 27.9482 12.9152 28.0513 13.5076 27.7587Z" fill="#333333"/>
<path d="M9.15168 27.1087C9.48915 26.8026 9.40288 26.1578 8.95899 25.6684C8.51511 25.1791 7.88169 25.0306 7.54421 25.3367C7.20674 25.6428 7.29301 26.2877 7.7369 26.777C8.18079 27.2663 8.81421 27.4149 9.15168 27.1087Z" fill="#333333"/>
<path d="M14.97 9.61125C14.97 9.61125 13.92 8.33625 11.3437 8.84625C9.52874 9.20625 8.64749 10.845 7.71749 11.9437C6.94499 12.8587 5.59874 13.0875 4.90124 12.3675C4.38374 11.8312 4.46624 11.2875 4.55999 10.8825C4.76999 9.99375 5.72999 9.5025 5.77874 9.165C5.84999 8.67375 3.56999 8.53125 2.47874 10.2225C1.38749 11.9137 1.76624 14.8687 3.45374 15.9225C5.14124 16.98 6.83249 17.5425 9.08624 15.57C11.34 13.5975 13.0912 11.0925 13.5637 10.6162C14.46 9.71625 14.97 9.61125 14.97 9.61125ZM17.8912 9.9375C17.8912 9.9375 18.9712 9.2775 20.5125 9.5325C22.2562 9.82125 23.9437 12.1912 24.5062 12.825C25.0687 13.4587 26.7225 15.4012 29.2237 14.6287C30.345 14.28 30.7875 13.5037 30.9562 12.6187C31.1625 11.5312 30.9412 10.6687 30.81 10.2525C30.7012 9.9075 30.3075 9.26625 30.7837 8.925C31.11 8.68875 31.68 8.9775 31.9987 9.50625C32.3137 10.035 33.03 12.2962 32.6775 13.845C32.325 15.3937 30.285 18.525 27.2212 18.4912C24.1575 18.4575 20.1112 17.19 18.4575 15.2175C16.8037 13.245 16.905 10.6762 17.8912 9.9375Z" fill="#B79277"/>
<path d="M8.03622 17.715C8.03622 17.715 7.37247 18.0637 6.38997 18.1237C5.37747 18.1837 4.15872 18.015 2.87997 16.7362C2.24622 16.1025 1.74372 14.775 1.63122 13.9837C1.37622 12.2175 2.24622 10.6387 2.24622 10.6387C2.24622 10.6387 1.97622 15.6412 6.10122 15.8512C8.87997 15.9937 10.9237 12.7875 11.6962 12.0862C12.4687 11.385 12.8212 11.595 12.8212 11.595C12.8212 11.595 11.9437 13.5825 10.8487 14.6925C9.73872 15.8175 8.36622 16.425 8.20872 16.6125C8.05497 16.7925 8.03622 17.715 8.03622 17.715ZM18.1012 9.8325C18.345 9.58125 16.1287 10.29 16.3762 12.5775C16.6237 14.865 19.7362 17.3812 21.8662 18.315C24.435 19.44 28.2712 19.8975 30.7012 18.3862C33.1312 16.8712 33.6562 13.7062 33.2362 11.8762C32.8125 10.0462 31.6875 8.745 31.0875 8.92125C30.735 9.02625 31.3875 9.69 31.8075 10.8037C32.1 11.5725 32.145 12.72 32.07 13.3537C31.9125 14.7337 31.4025 15.7087 30.7237 16.425C29.85 17.3437 28.4625 17.9737 26.2875 17.8237C24.4612 17.6962 22.755 17.025 21.4462 16.2262C19.86 15.2625 18.75 14.07 18.345 13.53C17.61 12.54 16.905 11.0625 18.1012 9.8325Z" fill="#895A4E"/>
</svg>
