<svg width="23" height="23" viewBox="0 0 23 23" fill="none" xmlns="http://www.w3.org/2000/svg">
<path d="M11.3072 0.706696C5.45264 0.706696 0.706726 5.45261 0.706726 11.3072C0.706726 17.1617 5.45264 21.9076 11.3072 21.9076C17.1617 21.9076 21.9076 17.1617 21.9076 11.3072C21.9076 5.45261 17.1617 0.706696 11.3072 0.706696ZM11.3072 3.35681C15.698 3.35681 19.2575 6.91636 19.2575 11.3072C19.2575 15.698 15.698 19.2575 11.3072 19.2575C6.91638 19.2575 3.35684 15.698 3.35684 11.3072C3.35684 6.91636 6.91638 3.35681 11.3072 3.35681ZM7.74609 6.00693C7.70324 6.00671 7.65749 6.01187 7.6108 6.02075V6.01934C6.80265 6.1711 5.61155 7.55389 6.13667 8.07874L9.36791 11.3086L6.13672 14.5384C5.49053 15.1844 7.42975 17.1238 8.07598 16.4777L11.3072 13.2464L14.5384 16.4776C15.1846 17.1237 17.1239 15.1844 16.4776 14.5384L13.2464 11.3085L16.4776 8.07874C17.1238 7.43278 15.1846 5.49488 14.5384 6.14085L11.3072 9.37067L8.07598 6.14085C7.98499 6.05048 7.87457 6.00768 7.74604 6.00701L7.74609 6.00693Z" fill="white"/>
</svg>
