<svg width="48" height="48" viewBox="0 0 48 48" fill="none" xmlns="http://www.w3.org/2000/svg">
<path d="M21.9375 5.11499L14.8275 9.12749L10.6762 13.14L7.28998 13.7962C7.28998 13.7962 8.60998 15.2737 12.45 14.0212C16.2525 12.78 18.3975 7.67999 22.545 8.13374C26.5312 8.56874 25.7775 12.45 25.7775 12.45L31.23 6.24374L21.9375 5.11499ZM20.7262 15.855C20.7262 15.855 19.4625 16.2262 18.7387 18.1912C18.1762 19.7175 18.5437 21.1987 18.705 21.78C18.8625 22.3612 19.2637 23.1525 19.29 23.4675C19.3162 23.7825 18.3862 24.4012 18.4312 24.9862C18.4575 25.3312 19.095 25.8412 19.8825 25.935C21.4125 26.1187 21.7575 25.725 21.7575 25.725L23.8162 18.6375L20.7262 15.855ZM21.4762 28.1962C21.4762 28.1962 18.825 26.6662 16.1062 26.8237C13.3875 26.9812 12.6225 28.2487 12.3037 29.3325C12.0937 30.0525 11.6062 31.2937 11.22 31.92C10.8637 32.5012 10.11 32.9962 9.63748 33.1012C8.95873 33.2512 8.11873 33.5362 8.38873 34.5787C8.60998 35.4337 9.23248 35.97 9.99748 36.4725C10.7512 36.9637 11.64 37.53 11.64 37.53L21.3787 31.0762L21.4762 28.1962ZM30.78 33.0787L28.5637 36.0075C28.5637 36.0075 29.4337 37.7512 31.5975 38.25C33.7612 38.7525 34.8825 38.8837 35.175 39.5812C35.5687 40.5337 35.1225 41.7975 34.965 42.0637C34.8075 42.3262 33.9825 43.1887 34.5825 43.7812C35.31 44.4937 37.275 44.07 37.9612 43.8337C38.6475 43.5975 39.51 43.4175 39.8137 42.4162C40.02 41.73 40.4362 39.2587 40.3762 37.725C40.3087 35.9437 39.9787 34.755 39.4275 34.2525C38.8725 33.75 35.2425 33.0787 35.2425 33.0787C35.2425 33.0787 35.8687 31.6237 36.5887 29.7262C36.945 28.7887 37.155 27.7875 37.3275 27.72C37.6012 27.615 38.055 28.3537 38.16 28.6425C38.265 28.9312 38.2125 31.8187 38.6062 32.25C38.94 32.6175 40.0425 32.8575 41.0512 32.1825C41.9362 31.59 42.87 30.4912 42.8212 29.3587C42.7537 27.8925 41.4075 26.8237 41.355 26.2425C41.3025 25.6612 41.565 24.195 41.355 23.0625C41.145 21.9262 35.7187 18.5625 35.7187 18.5625L30.78 33.0787Z" fill="#5A6415"/>
<path d="M21.015 38.145L8.50122 41.5237L6.81372 41.9212L6.86622 43.635L10.0612 45.7462L17.4525 43.5562L22.1775 41.025L20.8575 37.9612" fill="#F26A35"/>
<path d="M7.31622 44.1113C7.31622 44.1113 7.42122 42.555 8.10747 42.6863C8.66622 42.795 8.92497 44.64 8.92497 44.64L9.87372 45.4313L10.8225 44.535C10.8225 44.535 11.2987 42.6863 11.8537 42.6338C12.4875 42.5738 12.9112 44.295 12.9112 44.295L9.87747 45.9563L7.31622 44.1113ZM14.8125 40.1513C14.8125 40.1513 15.4687 41.4563 16.2375 41.3925C17.16 41.3138 17.3212 39.0713 17.3212 39.0713L14.8125 40.1513Z" fill="#FFFDFD"/>
<path d="M13.1737 34.635C13.0537 35.3587 11.5612 36.2587 10.9387 36.6675C10.1662 37.1775 9.26622 37.8562 8.68497 37.8825C8.10372 37.9087 7.24122 37.9687 6.41622 38.025C5.62497 38.0775 5.06247 38.2462 4.69122 39.0112C4.41747 39.5775 4.35747 40.8937 4.99122 41.5275C5.62497 42.1612 7.02372 42.7162 8.89872 42.4762C10.7737 42.24 11.355 41.9212 11.9625 41.6587C12.57 41.3962 15.3937 40.26 16.7137 39.915C18.0337 39.57 20.5162 38.8575 20.9362 39.2287C21.36 39.6 19.6687 40.7325 18.3487 41.235C17.0287 41.7375 13.11 43.98 11.5575 44.4037C10.4512 44.7037 8.09997 44.5387 7.52622 44.0062C7.09122 43.605 6.94497 43.3275 6.93372 42.9637C6.91872 42.6 6.51747 42.4687 6.15372 42.8437C5.70372 43.305 6.19497 44.5312 7.10247 45.2738C8.00622 46.005 9.52872 46.4325 11.7825 46.275C14.8462 46.065 17.6512 44.085 18.3112 44.0587C18.9712 44.0325 21.1237 44.3775 23.1675 43.5675C25.2675 42.735 26.2987 41.1562 26.2987 41.1562C26.2987 41.1562 28.1287 40.275 29.2912 39.4837C30.4537 38.6925 31.1925 38.145 31.1925 38.145C31.1925 38.145 30.1725 37.545 30.1462 36.0863C30.1312 35.2162 30.435 34.0275 31.2037 34.1587C31.9687 34.29 30.6487 36.2175 32.0737 36.9037C33.4987 37.59 35.955 38.355 37.275 37.59C38.595 36.825 39.9562 34.8487 39.51 34.1887C39.06 33.5287 37.9987 33.285 36.975 33.0787C36.015 32.8875 34.7925 32.8125 34.7925 32.8125C34.7925 32.8125 36.0862 29.565 36.2437 27.7462C36.3262 26.7975 36.2887 25.8937 36.165 25.1325C36.0075 24.1575 35.7562 22.9462 35.7675 22.0425C35.7825 21.0675 35.8725 19.7212 36.375 19.8262C36.8775 19.9312 36.6487 21.3037 36.7462 22.5975C36.8512 24.0487 37.485 26.1075 39.1237 26.0025C40.7587 25.8975 41.6325 24.7612 41.3925 22.5975C41.1562 20.4337 40.905 19.0612 40.005 17.9512C39.1087 16.8412 38.1187 16.62 38.1187 16.62C38.1187 16.62 37.9875 12.5175 36.7725 9.9825C35.4412 7.19625 32.4562 3.40875 27.8662 2.08875C23.2762 0.768746 19.875 2.0475 17.505 3.4875C14.2462 5.4675 12.8212 10.8375 10.815 11.8162C8.80872 12.795 7.18497 12.7537 7.15872 13.3087C7.13247 13.8637 7.34247 14.0475 8.63622 14.0212C9.92997 13.995 11.2575 13.785 12.9637 12.57C14.9812 11.13 17.7412 7.7925 19.8262 7.0275C21.9112 6.2625 24.1537 6.49875 25.2112 7.635C26.2687 8.77125 26.5837 10.0462 26.3325 11.0662C25.9162 12.7612 24.6825 13.8375 24.6825 13.8375C24.6825 13.8375 20.7487 14.895 19.6162 16.635C18.4837 18.375 18.81 19.155 19.6687 19.8562C21.045 20.9775 22.89 20.4112 22.89 20.4112C22.89 20.4112 21.9787 23.7637 21.7687 24.7912C21.5587 25.8225 20.8837 29.2012 20.6737 29.7262C20.4637 30.255 20.1975 31.4137 19.485 31.3875C18.7725 31.3612 17.505 30.0412 15.3412 30.885C13.38 31.65 13.335 33.6862 13.1737 34.635Z" fill="#70853C"/>
<path d="M19.5488 38.8838C18.7425 39.1088 18.69 41.0888 18.69 41.0888C18.69 41.0888 19.1813 40.8975 19.7063 40.6013C20.22 40.3125 20.4525 40.065 20.4525 40.065C20.4525 40.065 20.0475 38.745 19.5488 38.8838Z" fill="#FFFDFD"/>
<path d="M36.4725 42.5325C35.9175 42.4912 35.6812 43.0237 35.5575 43.5675C35.49 43.8562 35.4637 44.1337 35.4637 44.1337C35.4637 44.1337 35.7787 44.2012 36.15 44.175C36.5212 44.1487 36.8625 44.0962 36.8625 44.0962C36.8625 44.0962 37.2412 42.5887 36.4725 42.5325ZM37.3575 43.9912C37.3575 43.9912 37.2787 43.35 37.5562 42.825C37.8337 42.2962 38.5987 42.3 38.64 43.0237C38.6587 43.3875 38.6137 43.6237 38.6137 43.6237C38.6137 43.6237 38.3512 43.755 38.0925 43.83C37.7887 43.9125 37.3575 43.9912 37.3575 43.9912Z" fill="#70853C"/>
<path d="M39.5438 31.0988C38.8988 31.1025 38.8613 32.43 38.8613 32.43C38.8613 32.43 39.09 32.6175 39.5025 32.6288C39.87 32.64 40.1625 32.5613 40.1625 32.5613C40.1625 32.5613 40.26 31.095 39.5438 31.0988ZM40.7213 32.37C40.7213 32.37 40.11 30.9 40.9088 30.6975C41.4563 30.5588 41.6475 31.695 41.6475 31.695C41.6475 31.695 41.475 31.9125 41.25 32.0663C41.01 32.2275 40.7213 32.37 40.7213 32.37Z" fill="#71873B"/>
<path d="M18.6262 25.3688C18.6262 25.3688 19.1362 24.1613 19.65 24.4238C20.19 24.7013 19.5037 25.8563 19.5037 25.8563C19.5037 25.8563 19.215 25.7625 18.975 25.6313C18.81 25.5413 18.6262 25.3688 18.6262 25.3688ZM20.67 24.75C21.2362 24.7763 21.0412 25.9725 21.0412 25.9725C21.0412 25.9725 20.7975 25.9988 20.5387 25.9913C20.2987 25.9838 20.0175 25.9575 20.0175 25.9575C20.0175 25.9575 20.1675 24.7275 20.67 24.75ZM8.34372 34.2525C8.34372 34.2525 9.70497 33.8963 9.97872 34.5038C10.2562 35.1113 8.86497 35.52 8.86497 35.52C8.86497 35.52 8.57997 35.16 8.48997 34.9125C8.29872 34.4025 8.34372 34.2525 8.34372 34.2525ZM9.32247 35.9738C9.30747 35.9325 10.1662 35.115 10.6537 35.4713C11.1412 35.8275 10.35 36.6863 10.35 36.6863C10.35 36.6863 10.02 36.5063 9.80997 36.3563C9.55497 36.1763 9.32247 35.9738 9.32247 35.9738Z" fill="#70853C"/>
<path d="M23.1862 35.6287C23.2387 36.2437 23.0625 36.9675 22.1287 37.1962C21.2812 37.4062 20.4225 36.8625 20.4037 35.9475C20.385 35.0662 21.075 34.4325 21.8287 34.4325C22.5825 34.4325 23.1225 34.875 23.1862 35.6287ZM10.1212 40.3537C10.0875 40.7925 9.70873 40.9125 9.43498 40.8825C9.04873 40.8375 8.79373 40.4587 8.90248 40.0987C9.00373 39.75 9.35623 39.5887 9.65623 39.6825C9.95248 39.7725 10.1512 39.9787 10.1212 40.3537ZM7.06873 39.5025C7.22623 39.855 6.92623 40.2037 6.69748 40.2937C6.38998 40.4175 5.98123 40.2787 5.87998 39.915C5.78248 39.5662 5.99623 39.2437 6.29998 39.165C6.60373 39.0862 6.91498 39.1575 7.06873 39.5025Z" fill="#2E2C33"/>
<path d="M22.3275 28.995C22.0725 29.8425 22.3575 30.3637 22.4812 30.6375C22.7287 31.1812 23.1187 31.1625 23.4375 30.915C23.7525 30.6675 23.295 29.79 23.4562 29.385C23.685 28.8037 24.495 28.785 24.4237 28.0837C24.3712 27.5587 23.67 27.4462 23.175 27.8737C22.8112 28.1775 22.4962 28.4212 22.3275 28.995ZM24.0112 23.8012C23.655 24.6825 23.88 25.3912 23.985 25.65C24.1575 26.0737 24.9487 26.205 25.0275 25.5037C25.08 25.0312 24.855 24.7237 25.0687 24.1837C25.275 23.655 25.7025 23.7862 26.1 23.43C26.31 23.2387 26.3362 22.5337 25.56 22.545C25.1475 22.5525 24.4312 22.7587 24.0112 23.8012ZM30.57 25.7775C30.4125 26.5837 30.5437 27.0975 30.7012 27.375C30.8587 27.6525 31.5187 27.8475 31.7025 27.2437C31.8075 26.8987 31.5562 26.625 31.7437 25.9125C31.8375 25.5487 32.0887 25.3725 32.325 25.1212C32.6962 24.7237 32.2012 24.0862 31.5975 24.33C31.1775 24.4987 30.765 24.795 30.57 25.7775ZM28.1812 30.7425C27.8512 31.335 27.9112 32.0025 27.9712 32.3925C28.0912 33.1987 28.8937 33.1837 28.9875 32.7225C29.0812 32.2612 28.9725 31.6912 29.1337 31.3087C29.295 30.9262 29.7937 30.8362 30.1087 30.675C30.5437 30.45 30.4237 29.5275 29.6062 29.7C28.7887 29.8725 28.4437 30.27 28.1812 30.7425ZM32.0625 19.7737C31.8637 20.445 31.92 20.9025 31.9687 21.1462C32.0887 21.7125 32.88 21.7387 32.9587 21.24C33.0375 20.7375 33.0112 20.46 33.105 20.145C33.2587 19.6237 33.39 19.5337 33.6187 19.2862C34.0275 18.8512 33.525 18.165 32.9062 18.5325C32.55 18.7462 32.2125 19.2637 32.0625 19.7737ZM25.6575 17.865C25.3162 18.525 25.3987 19.2375 25.4512 19.5862C25.5075 19.9312 25.6837 20.2537 26.0662 20.2237C26.4487 20.1975 26.5875 19.905 26.5462 19.5862C26.5237 19.4212 26.4375 18.8775 26.6137 18.5025C26.79 18.1275 27.1425 17.9025 27.42 17.7937C28.1062 17.5312 27.7012 16.5412 26.9137 16.8075C26.34 17.0062 25.9312 17.3362 25.6575 17.865ZM28.1962 12.7275C27.7012 13.26 27.675 13.905 27.7087 14.3625C27.7762 15.2737 28.62 15.1275 28.725 14.6137C28.7962 14.2687 28.8712 13.7962 28.9762 13.5562C29.1862 13.08 29.5425 12.7912 29.265 12.4987C29.0137 12.24 28.5262 12.3712 28.1962 12.7275ZM32.9212 13.9462C32.8762 14.7375 33.0075 15.06 33.2062 15.4237C33.4912 15.945 34.2225 15.8137 34.2637 15.1987C34.2937 14.7525 34.0837 14.8575 34.1287 13.9912C34.1587 13.4437 34.455 12.9187 34.0537 12.7237C33.6562 12.5287 32.9962 12.6337 32.9212 13.9462ZM31.6912 7.85624C31.9162 8.23874 32.205 8.56874 32.31 9.09749C32.4562 9.82499 33.4087 9.65249 33.42 8.99249C33.435 8.10749 33.1575 7.71374 32.8387 7.31624C32.5312 6.93374 32.0325 6.91874 31.8225 7.06499C31.6125 7.21124 31.5 7.52999 31.6912 7.85624ZM28.065 8.17874C27.825 8.38124 27.7387 8.78624 27.9787 9.08624C28.2937 9.47624 28.47 9.79499 28.4512 10.1212C28.4212 10.6425 28.89 10.8337 29.19 10.6162C29.5912 10.3237 29.73 9.77624 29.3475 8.91749C28.9875 8.11499 28.3387 7.94249 28.065 8.17874ZM27.0337 3.56999C26.9175 3.93749 27.3075 4.07249 27.6975 4.13999C28.0875 4.20749 28.5375 4.49999 28.6687 4.78874C28.8525 5.19374 29.43 5.41499 29.5537 4.78124C29.6625 4.23749 28.9687 3.67499 28.5412 3.42749C28.1925 3.22124 27.2362 2.93249 27.0337 3.56999ZM26.175 5.17874C25.5825 4.84499 24.555 4.87499 24.4312 5.44124C24.3 6.05999 24.8662 6.04124 25.1175 6.05999C25.4475 6.08624 25.7625 6.17999 25.9612 6.41624C26.16 6.65249 26.3062 6.91874 26.715 6.79874C27.1237 6.68249 27.2062 5.75624 26.175 5.17874ZM24.1425 3.22499C24.315 3.00749 24.2625 2.36624 23.1 2.31374C22.1287 2.26874 21.8775 2.73374 22.0312 3.02624C22.23 3.40874 22.7137 3.14249 23.115 3.18374C23.6025 3.23624 23.9325 3.48749 24.1425 3.22499ZM21.7012 4.37249C21.03 4.29374 20.2837 4.69874 20.4337 5.28374C20.5537 5.74499 21.105 5.24624 21.5437 5.25749C22.0725 5.27249 22.5375 5.59499 22.6912 5.28374C22.9162 4.83374 22.6237 4.48124 21.7012 4.37249ZM19.3162 3.58124C19.305 4.03124 18.885 3.89999 18.3675 4.09499C18.0525 4.21499 17.7562 4.78124 17.46 4.53374C17.0625 4.19999 17.4262 3.66749 18.0225 3.35999C18.4537 3.13124 19.3312 3.10499 19.3162 3.58124ZM17.4975 5.57624C16.6162 6.00749 16.3875 7.07999 16.8262 7.27124C17.3587 7.50374 17.3475 6.70874 17.805 6.41624C18.1687 6.18749 19.0162 6.30749 19.0087 5.78999C19.0012 5.27249 18.03 5.31749 17.4975 5.57624ZM15.855 8.47499C15.9525 8.13374 15.2737 7.66874 14.4675 8.21249C13.6612 8.75624 13.605 9.55124 14.1225 9.66374C14.4937 9.74249 14.52 9.17999 14.835 8.93624C15.285 8.59499 15.7237 8.93999 15.855 8.47499Z" fill="#97A927"/>
</svg>
