<svg width="24" height="24" viewBox="0 0 24 24" fill="none" xmlns="http://www.w3.org/2000/svg">
<path d="M8.43561 13.0275C8.43561 13.0275 10.6537 12.8963 10.3106 9.8869C9.96749 6.87753 8.88561 6.82503 8.46374 5.32128C8.04186 3.81753 8.03249 2.31565 7.82999 2.2069C7.67436 2.12253 6.45749 3.05065 6.45749 3.05065C6.45749 3.05065 5.33062 3.99753 5.24249 3.7369C5.11874 3.36753 6.19311 1.6519 6.35061 1.30878C6.50811 0.965651 6.44249 0.40315 5.71687 0.834401C5.06624 1.21878 1.17562 4.37065 1.25624 6.82503C1.33687 9.2794 4.26561 12.0244 4.26561 12.0244L6.03374 10.2563L8.43561 13.0275Z" fill="#4F3B37"/>
<path d="M12.7294 17.0044C12.7294 17.0044 14.7713 18.1838 15.2982 18.5888C15.825 18.9938 16.635 19.6444 16.635 19.6444C16.635 19.6444 16.2657 20.5763 15.8963 20.805C15.5269 21.0338 15.0525 21.105 15.0525 21.105C15.0525 21.105 14.4188 21.7744 13.9782 21.8081C13.5375 21.8419 13.1682 21.615 13.1682 21.615C13.1682 21.615 12.5869 21.8269 12.3413 21.8081C12.0957 21.7913 11.3738 21.2269 11.3738 21.2269L12.7294 17.0044Z" fill="url(#paint0_linear_31_242)"/>
<path d="M9.59624 11.55C9.59624 11.55 10.5637 11.6381 11.04 10.0369C11.5144 8.43564 11.4094 7.16814 12.3244 6.21751C13.2394 5.26689 14.1375 5.07376 15.1219 5.00251C16.1081 4.93126 19.8375 4.79064 20.7712 4.72126C21.7031 4.65001 22.4775 4.40439 22.5656 4.59751C22.6312 4.74189 21.5269 6.62064 21.5269 6.62064C21.5269 6.62064 19.0462 6.65626 18.9937 7.18314C18.9412 7.71189 20.8462 7.42501 20.8594 7.69314C20.8781 8.06251 19.2581 10.1213 18.6769 10.7025C18.0956 11.2838 17.6212 11.3531 17.4281 11.6531C17.235 11.9531 16.3894 14.5388 15.3862 15.4538C14.3831 16.3688 13.1156 16.44 13.1156 16.44C13.1156 16.44 13.8731 17.4956 13.6256 18.3938C13.38 19.2919 12.9394 20.4788 12.4106 21.0956C12.0375 21.5325 11.4506 21.9131 10.8619 21.4913C10.2056 21.0206 10.2469 20.0663 10.4044 19.485C10.5619 18.9038 10.4756 18.5175 10.4756 18.5175C10.4756 18.5175 9.53812 19.4944 8.97937 19.9781C8.39062 20.4881 7.84499 21.3338 7.07812 20.4C6.21937 19.3556 7.13999 18.7463 7.49249 18.2888C7.84499 17.8313 7.97624 17.6381 7.97624 17.6381L6.70874 14.9625L9.59624 11.55Z" fill="#70534C"/>
<path d="M4.62186 9.92626C4.23749 10.3106 3.22311 11.3475 4.56936 12.5081C5.91561 13.6688 5.95499 14.3606 6.31124 14.8481C6.66936 15.3394 6.95811 15.8119 7.18312 16.05C7.40811 16.2881 7.98749 16.7756 8.17311 16.7231C8.35874 16.6706 7.97436 15.2719 8.06811 15.1913C8.16186 15.1106 9.18936 15.825 9.34874 15.72C9.51561 15.6075 9.16311 14.2556 9.24374 14.1881C9.32249 14.1225 10.2431 14.7544 10.365 14.6494C10.5375 14.505 9.83624 11.7056 9.77061 11.5613C9.73499 11.4844 8.77124 10.7719 7.94999 10.215C7.21874 9.72001 6.92061 9.48938 6.23436 9.39751C5.60061 9.31313 4.91061 9.63563 4.62186 9.92626Z" fill="#FFEAC8"/>
<path d="M4.43624 14.2031C4.51499 14.0044 4.60874 13.7869 5.12249 13.4044C5.63811 13.0219 6.44811 12.4538 6.46874 12.2756C6.48936 12.1106 5.39061 12.2175 5.06061 12.1913C4.73061 12.165 4.35749 12.1163 4.14561 11.9456C3.95624 11.7919 3.95249 11.6456 3.95249 11.6456C3.95249 11.6456 3.14624 12.2006 3.05061 12.8419C2.94561 13.5544 3.18186 14.0569 3.65811 14.4C4.13436 14.7431 4.33311 14.835 4.45686 14.7694C4.60874 14.6906 4.43624 14.2031 4.43624 14.2031Z" fill="#FFB903"/>
<path d="M4.09687 13.9706C4.12312 13.7794 4.19062 13.3856 4.59374 12.99C4.93687 12.6525 5.53124 12.1856 5.69624 12.1856H6.15749C6.15749 12.1856 6.02624 12.4556 5.78812 12.6075C5.54999 12.7594 5.24999 12.9919 4.87124 13.3275C4.47562 13.6781 4.44187 14.1919 4.44187 14.1919C4.44187 14.1919 4.58624 14.6081 4.47562 14.7469C4.37624 14.865 4.07062 14.1637 4.09687 13.9706Z" fill="#FF8E01"/>
<path d="M5.43935 11.4843C5.45435 11.6081 5.55185 11.8537 5.89497 11.7806C6.17997 11.7206 6.38997 11.3325 6.2981 11.055C6.2231 10.8318 6.04122 10.785 5.9156 10.8637C5.78997 10.9425 5.4056 11.2143 5.43935 11.4843Z" fill="#302F2F"/>
<path d="M14.9906 20.8763C14.9494 20.9006 14.6475 21.4313 14.0925 21.5719C13.5375 21.7125 13.3181 21.4313 13.2038 21.4313C13.0894 21.4313 12.6975 21.6731 12.3375 21.6375C12.0563 21.6094 11.5931 21.21 11.5931 21.21L11.4 21.5175C11.4 21.5175 11.8482 22.0013 12.3507 22.0275C12.8513 22.0538 13.1682 21.8344 13.1682 21.8344C13.1682 21.8344 13.6613 22.0856 14.1806 21.9844C14.9025 21.8438 15.1744 21.21 15.1744 21.21C15.1744 21.21 15.7725 21.1481 16.1681 20.85C16.5638 20.55 16.92 19.7681 16.6557 19.6444C16.3913 19.5206 16.2469 20.1806 15.93 20.4356C15.6131 20.6906 15.105 20.8069 14.9906 20.8763Z" fill="#70534C"/>
<path d="M4.8544 20.9006C4.7569 20.6906 5.1544 19.6537 6.21003 19.6894C7.26565 19.725 7.7494 20.5069 7.65378 21.2812C7.55628 22.0556 7.04628 22.3012 6.9244 22.2131C6.80065 22.125 6.6694 21.57 6.6694 21.57L6.13315 20.8931C6.1294 20.895 5.0569 21.3319 4.8544 20.9006ZM8.93628 22.0969C8.7919 21.8156 9.0994 21.1987 9.5344 20.9737C10.0725 20.6944 10.47 20.6794 11.0832 21.1744C11.9063 21.8381 11.2594 23.0194 10.8938 23.1712C10.3857 23.3831 10.5113 23.1731 10.5207 22.9181C10.53 22.6631 10.2919 22.0125 10.2919 22.0125L8.93628 22.0969Z" fill="#FFB903"/>
<path d="M6.92249 21.0862C6.99749 21.3656 7.06686 22.1943 6.88311 22.1812C6.75936 22.1718 6.59624 21.6881 6.52686 21.5043C6.45749 21.3206 6.01124 21.0506 5.84436 21.0431C5.67749 21.0337 5.09999 21.1537 5.08311 21.0431C5.04749 20.8256 5.73936 20.4975 6.01124 20.5068C6.24936 20.5125 6.84186 20.7881 6.92249 21.0862ZM8.92874 22.0556C8.93811 22.2562 9.48374 22.1175 9.70311 22.1437C9.92249 22.17 10.2 22.2787 10.3237 22.5337C10.3819 22.6537 10.4344 23.2331 10.5562 23.2425C10.785 23.2593 10.8469 22.4718 10.8206 22.4006C10.7419 22.1868 10.4344 21.6562 9.83436 21.5981C9.51749 21.5643 8.92311 21.9506 8.92874 22.0556Z" fill="#F4821E"/>
<defs>
<linearGradient id="paint0_linear_31_242" x1="12.862" y1="16.9616" x2="14.4147" y2="21.6827" gradientUnits="userSpaceOnUse">
<stop offset="0.207" stop-color="#AC8979"/>
<stop offset="0.309" stop-color="#B59482"/>
<stop offset="0.485" stop-color="#CDB099"/>
<stop offset="0.714" stop-color="#F4DDBE"/>
<stop offset="0.771" stop-color="#FFEAC8"/>
</linearGradient>
</defs>
</svg>
