<svg width="48" height="48" viewBox="0 0 48 48" fill="none" xmlns="http://www.w3.org/2000/svg">
<path d="M14.2838 27.9563C14.3363 28.4325 13.9125 30.8063 13.7025 31.5975C13.4925 32.3888 13.1738 34.0275 13.4925 34.605C13.8075 35.1863 16.08 37.4813 16.9238 38.2725C17.7675 39.0638 19.8788 40.6763 20.7263 40.7813C21.57 40.8863 22.995 38.8275 22.785 37.665C22.575 36.5025 20.4075 33.9713 20.4075 33.9713L21.465 32.07L25.1063 32.4413C25.1063 32.4413 25.0013 35.715 25.0013 37.14C25.0013 38.565 24.3038 41.19 25.1063 41.7337C26.0025 42.3413 28.7475 42.1838 29.3813 41.4975C30.015 40.8113 29.4338 38.145 29.805 36.825C30.1763 35.505 31.1775 33.1838 31.1775 33.1838L34.185 19.4063L32.4975 14.1788C32.4975 14.1788 32.445 13.4925 32.34 12.9113C32.235 12.33 31.4438 10.9575 31.2825 10.6425C31.1213 10.3275 18.4538 8.63625 18.4538 8.63625L13.965 7.7925L13.9463 6.315L6.62626 7.15875L4.05751 11.4863L3.07501 19.4063C3.07501 19.4063 2.05501 22.2563 2.30251 22.89C2.55001 23.5238 3.28876 25.2488 4.38001 25.6013C5.47126 25.9538 7.68751 26.3738 7.68751 26.3738L10.2563 27.7463C10.2563 27.7463 11.835 26.97 12.93 27.1838C14.37 27.465 14.2838 27.9563 14.2838 27.9563Z" fill="#878787"/>
<path d="M6.27749 3.98999C5.16749 4.30499 2.93249 6.66374 2.58374 8.17874C2.23499 9.69374 3.09374 12.975 2.93999 13.965C2.74499 15.2137 2.01749 18.3825 1.94999 20.1075C1.88249 21.8325 3.25124 23.0625 3.25124 23.0625L4.60499 22.7812C4.60499 22.7812 4.39499 16.8525 4.63874 16.005C4.88624 15.1612 5.46749 14.685 5.46749 14.685C5.46749 14.685 5.20499 11.6587 6.46874 9.96749C7.73249 8.27624 9.81374 7.275 11.22 7.13249C12.6262 6.99 13.9462 7.30874 13.9462 7.30874C13.9462 7.30874 14.2462 5.00249 12.855 4.08749C11.2762 3.05249 7.06874 3.76499 6.27749 3.98999ZM20.46 24.5062C20.46 24.5062 21.4087 25.8075 22.7812 25.7025C24.1537 25.5975 26.0887 24.1875 27.075 23.31C28.0612 22.4325 30.5587 20.0362 31.2262 19.05C31.8937 18.0637 32.2837 17.1412 32.4225 16.0237C32.5725 14.835 32.4937 14.175 32.4937 14.175C32.4937 14.175 33.8137 14.52 35.1337 15.8625C36.1125 16.86 37.2112 17.9662 37.8787 20.85C38.5462 23.7337 38.7225 25.38 38.865 25.6612C39.0075 25.9425 39.7012 26.8125 40.1775 27.3412C40.815 28.0462 41.445 28.3987 41.61 28.3725C42.0675 28.2675 42.5775 28.2675 43.2375 28.425C43.8975 28.5825 44.7862 29.565 45.27 30.0862C45.9037 30.7725 46.5637 31.3012 46.5637 31.4325C46.5637 31.7025 44.535 31.8862 42.525 31.1175C41.2837 30.6412 40.7812 29.4 40.7812 29.4C40.7812 29.4 39.75 28.6875 39.12 28.1325C38.7825 27.8362 38.2762 27.3412 38.2762 27.3412C38.2762 27.3412 38.025 28.4025 37.7475 29.3212C37.4325 30.3787 37.1137 31.6425 37.2187 32.9362C37.3237 34.23 37.905 35.7862 38.4862 37.0012C39.0675 38.2162 39.6487 39.7725 38.9625 40.8825C38.2762 41.9925 35.9287 43.7887 34.6875 42.8887C33.9225 42.3337 33.4462 40.1962 33.1575 39.0075C32.8687 37.8187 31.8375 35.2875 31.7062 34.995C31.575 34.7062 30.8625 33.6487 30.8625 33.6487C30.8625 33.6487 28.6987 33.78 26.5612 33.7537C24.4237 33.7275 23.1825 33.5175 23.1825 33.5175C23.1825 33.5175 21.5737 36.4987 20.9662 38.2162C20.3587 39.9337 19.965 42.4912 19.5675 43.2037C19.17 43.9162 18.4837 45.15 15.8737 44.8912C13.7362 44.6812 13.2862 43.335 13.2862 43.335C13.2862 43.335 12.9975 42.015 13.7887 39.48C14.58 36.945 15.5062 34.4662 16.11 32.4862C16.32 31.7962 16.56 30.6375 16.56 30.6375C16.56 30.6375 15.03 28.92 14.8987 28.7362C14.7675 28.5525 14.2912 28.1025 14.2912 28.1025L14.2237 27.7312C14.2237 27.7312 15.5662 27.795 17.1412 27.3075C19.5375 26.5837 20.46 24.5062 20.46 24.5062Z" fill="#BEBEBE"/>
<path d="M17.925 7.5075C17.925 7.5075 19.1925 5.25375 20.2837 5.115C21.375 4.97625 24.9225 4.59 26.76 5.2575C27.6825 5.59125 29.9362 7.83375 30.6225 8.9775C31.2862 10.0837 32.145 11.5537 31.8975 13.4212C31.6537 15.285 31.125 15.285 31.125 15.7425C31.125 16.2 31.3012 17.2912 30.5962 18.1012C29.8912 18.9112 29.1187 18.1725 28.6612 18.735C28.2037 19.2975 28.3425 20.7075 27.7125 21.375C27.0787 22.0425 25.74 21.975 25.215 22.395C24.6862 22.8187 24.5475 24.2587 23.2087 24.5437C21.87 24.825 21.345 23.4862 20.955 21.06C20.5687 18.63 20.3737 14.64 19.7587 14.655C19.1287 14.67 19.3575 15.8737 19.4325 17.4937C19.5112 19.2 20.1112 22.7512 18.9487 24.2662C17.7862 25.7812 16.5562 26.415 15.2887 26.4825C14.0212 26.5537 12.8175 25.665 12.255 25.77C11.6925 25.875 12.0187 26.5575 11.1375 27.3637C10.2225 28.2 9.51748 29.0175 9.23623 29.7225C8.95498 30.4275 8.17873 31.8712 8.21623 33.3825C8.25373 34.8937 8.72623 35.52 9.32623 35.3812C9.92623 35.2387 9.57748 33.585 10.1175 33.2437C10.62 32.9287 11.9812 33.6675 11.9475 35.7075C11.9137 37.7475 9.93373 39.4725 7.21498 38.5762C4.33873 37.6275 3.96748 33.375 4.60123 31.1587C5.23498 28.9425 5.51623 27.165 5.54998 25.9312C5.58373 24.7012 5.04748 23.985 5.15248 23.1075C5.25748 22.2262 5.15248 22.0162 5.18623 20.4337C5.21998 18.8512 5.04373 16.5975 5.36248 16.035C5.67748 15.4725 6.20623 14.8725 6.20623 14.8725C6.20623 14.8725 5.86498 12.3637 6.59248 11.0025C7.71748 8.89125 9.89998 7.87125 12.4012 7.62375C14.8987 7.36875 17.925 7.5075 17.925 7.5075Z" fill="#BEBEBE"/>
<path d="M15.1425 20.0887C15.8343 20.0887 16.395 19.5162 16.395 18.81C16.395 18.1038 15.8343 17.5312 15.1425 17.5312C14.4508 17.5312 13.89 18.1038 13.89 18.81C13.89 19.5162 14.4508 20.0887 15.1425 20.0887Z" fill="#010101"/>
<path d="M12.8925 25.02C13.05 24.3 14.0325 23.2763 14.775 23.5238C15.2512 23.6813 15.5662 24.825 15.4087 25.5638C15.2512 26.3025 14.58 26.85 13.6837 26.565C12.7875 26.2838 12.795 25.4738 12.8925 25.02ZM1.42123 21.2175C1.13248 21.8588 2.00248 22.7475 2.58373 23.2238C3.16498 23.7 4.43248 24.5963 4.79998 24.8063C5.16748 25.0163 5.53873 25.1063 5.53873 25.1063C5.53873 25.1063 5.20498 23.805 5.20498 23.4188C5.20498 23.0325 5.22373 22.2413 5.22373 22.2413C5.22373 22.2413 4.11373 21.6413 3.47998 21.4313C2.84623 21.2175 1.66498 20.67 1.42123 21.2175Z" fill="#FAE9AE"/>
</svg>
