<svg width="24" height="24" viewBox="0 0 24 24" fill="none" xmlns="http://www.w3.org/2000/svg">
<path d="M11.7357 2.54815C11.7357 2.54815 12.0788 1.7569 12.8569 1.2544C13.2357 1.01065 13.8975 0.633771 14.0175 0.845646C14.07 0.937521 13.8994 1.17565 13.7269 1.54502C13.6575 1.6969 13.5019 2.1919 13.5019 2.1919C13.5019 2.1919 14.1882 1.29377 15.39 1.05752C16.335 0.870021 17.3569 0.991896 17.475 1.2019C17.6025 1.42877 16.9332 1.92752 16.7232 2.36252C16.5132 2.79752 16.3538 3.35252 16.3538 3.35252C16.3538 3.35252 17.6194 2.7544 17.9382 2.6269C18.3338 2.4694 19.1925 2.1394 19.3107 2.28377C19.4288 2.42815 18.9319 3.26627 18.8232 3.41815C18.6919 3.60377 18.4932 3.9469 18.4932 3.9469C18.4932 3.9469 19.1007 3.6694 19.3369 3.52502C19.575 3.38065 20.1019 2.97002 20.2219 3.05065C20.34 3.1294 20.34 3.9319 20.2613 4.27877C20.1563 4.74002 19.6669 5.24252 19.6669 5.24252C19.6669 5.24252 20.3663 5.40002 20.7488 5.8894C21.1313 6.37877 21.3544 6.7594 21.5138 7.24877C21.7519 7.9744 21.8569 8.9644 21.8044 9.15002C21.7519 9.33565 21.4613 9.0844 20.9194 9.04502C20.5988 9.02065 20.5238 9.01877 20.5238 9.01877C20.5238 9.01877 20.8294 9.38252 20.9719 9.71815C21.1575 10.1531 21.36 10.8394 21.4725 11.13C21.5907 11.4338 21.6844 11.6719 21.855 12.015C21.9057 12.1163 21.4988 12.2138 21.09 11.8294C20.9532 11.7019 20.7863 11.5781 20.7863 11.5781C20.7863 11.5781 21.0282 13.0163 21.0113 13.98C20.9982 14.6925 20.8388 15.9863 20.6288 16.1044C20.4169 16.2225 19.995 15.3131 19.995 15.3131C19.995 15.3131 19.8113 16.3481 19.5994 17.0419C19.3482 17.8594 19.11 18.2419 18.9657 18.7313C18.7932 19.3125 18.6225 19.7344 18.5044 19.5488C18.4013 19.3894 18.2925 19.14 18.1875 18.9544C18.1069 18.8138 17.9232 18.4388 17.9232 18.4388C17.9232 18.4388 17.7375 19.56 16.8413 20.3138C15.945 21.0675 15.3638 21.6731 14.94 21.7256C14.6907 21.7575 14.9794 20.6306 14.9794 20.6306C14.9794 20.6306 13.5807 21.7294 12.9075 22.2281C12.6038 22.4531 12.3263 23.1919 12.1163 23.1394C11.9044 23.0869 11.3644 22.2675 11.0213 22.0181C10.6782 21.7688 10.0313 21.4763 9.9394 21.4238C9.84753 21.3713 9.41065 21.0938 9.41065 21.0938C9.41065 21.0938 9.5194 21.7069 9.39753 21.7669C9.13315 21.8981 8.1169 21.1725 7.82628 20.7244C7.53565 20.2763 7.0219 19.3519 7.0219 19.3519C7.0219 19.3519 6.95628 20.2369 6.7444 20.0906C6.5194 19.9369 5.4244 19.1269 5.0419 18.5194C4.7719 18.09 4.30315 16.8825 4.30315 16.8825C4.30315 16.8825 3.8944 17.3044 3.7744 17.3569C3.6544 17.4094 3.35253 17.5294 3.40503 17.0663C3.45753 16.605 3.09565 15.5588 3.03565 14.9288C2.9569 14.1113 3.1144 13.2656 3.1144 13.2656C3.1144 13.2656 2.44128 14.1638 2.1244 14.1506C1.80753 14.1375 1.99315 12.4088 2.0719 11.88C2.15065 11.3513 2.41503 10.4288 2.52003 10.0988C2.62503 9.76877 3.02065 9.28127 3.02065 9.28127C3.02065 9.28127 2.04378 9.61127 1.8994 9.48002C1.75503 9.34877 1.97815 8.17315 2.11128 7.46065C2.17878 7.09502 2.46753 6.52315 2.8369 6.10127C3.20628 5.6794 3.7744 5.75815 3.8269 5.57252C3.8794 5.3869 3.6169 5.24065 3.43128 4.93877C3.15378 4.49065 2.99628 3.56627 3.14065 3.4069C3.23065 3.3094 3.73503 3.69752 4.34253 3.76315C4.95003 3.82877 5.49003 3.7894 5.49003 3.7894C5.49003 3.7894 5.1394 3.3769 4.9894 3.03752C4.77753 2.56315 4.7644 1.99502 4.89753 1.84877C5.03065 1.70252 5.4919 2.15252 6.11253 2.31002C6.73315 2.46752 7.65753 2.48252 7.65753 2.48252C7.65753 2.48252 7.2619 2.06065 7.1569 1.57127C7.0519 1.08377 7.07815 0.780021 7.24878 0.727521C7.42128 0.675021 7.92378 1.14565 8.27815 1.25627C8.66065 1.3744 9.9544 1.29565 10.5357 1.46815C11.1169 1.64065 11.7357 2.54815 11.7357 2.54815Z" fill="#865C50"/>
<path d="M15.9057 6.6675C15.9057 6.6675 18.1763 4.50375 19.4963 6.1125C21.0619 8.02313 16.9088 10.125 16.9088 10.125L15.9057 6.6675ZM7.98756 7.22063C7.98756 7.22063 5.87068 4.44563 4.31443 5.94938C2.75818 7.45313 5.98131 9.75375 5.98131 9.75375L7.98756 7.22063Z" fill="#FEC000"/>
<path d="M17.8594 8.51436C17.8594 8.51436 19.5225 7.35373 18.8362 6.61311C18.1031 5.82373 16.7512 7.19436 16.7512 7.19436L17.8594 8.51436ZM7.01999 7.28811C7.01999 7.28811 5.64187 5.92311 4.92937 6.76686C4.28812 7.52623 6.11812 8.98498 6.11812 8.98498L7.01999 7.28811Z" fill="#FF8E06"/>
<path d="M12.1312 16.7756C12.1312 16.7756 13.4774 16.4062 14.3212 15.9844C15.1649 15.5625 18.3074 13.7944 18.5437 11.6287C18.7818 9.46499 18.5437 8.88374 17.5406 7.56374C16.5374 6.24374 14.7787 5.93999 13.8712 6.13874C12.7893 6.37686 12.6037 7.16624 12.1293 7.19436C11.6812 7.22061 11.8124 6.71999 10.5187 6.24374C8.86307 5.63436 4.33119 7.26561 5.13369 11.6287C5.55557 13.9256 8.90244 15.885 9.32994 16.1156C10.3631 16.6706 12.1312 16.7756 12.1312 16.7756Z" fill="#FEC000"/>
<path d="M15.5543 9.56839C15.7163 9.16141 15.5239 8.70266 15.1246 8.54374C14.7253 8.38482 14.2703 8.58591 14.1084 8.9929C13.9464 9.39988 14.1387 9.85863 14.538 10.0175C14.9373 10.1765 15.3923 9.97537 15.5543 9.56839Z" fill="#2E2F2F"/>
<path d="M9.45356 9.93567C9.86316 9.7691 10.0576 9.2958 9.88795 8.87853C9.71826 8.46126 9.24866 8.25802 8.83906 8.42459C8.42946 8.59116 8.23497 9.06446 8.40467 9.48174C8.57436 9.89901 9.04396 10.1022 9.45356 9.93567Z" fill="#2E2F2F"/>
<path d="M12.0957 10.6875C10.4944 10.6387 9.0863 12.4481 9.0863 15.4556C9.0863 18.3769 10.6351 19.0631 11.8838 19.0631C13.4682 19.0631 14.9626 18.0244 14.7882 15.1912C14.6251 12.57 13.8019 10.74 12.0957 10.6875Z" fill="#FFD899"/>
<path d="M10.23 12.3412C10.0725 12.4987 10.3706 13.3612 10.635 13.8018C10.8993 14.2425 11.655 14.9625 12.0787 14.9456C12.5006 14.9287 13.2937 14.0475 13.5393 13.3968C13.785 12.7462 13.8562 12.3412 13.7512 12.1818C13.6462 12.0225 12.3956 12.2175 11.9212 12.2175C11.4468 12.2175 10.3893 12.1837 10.23 12.3412Z" fill="#2E2F2F"/>
<path d="M12.0431 14.34C12.0431 14.34 11.3625 15.0807 11.0662 15.1932C10.6518 15.3507 10.0106 15.2157 9.99183 15.4707C9.97496 15.735 10.3875 16.0125 11.0475 15.9244C11.7768 15.8269 12.0506 15.3788 12.0506 15.3788C12.0506 15.3788 12.465 15.9675 13.2656 16.0032C14.0662 16.0388 14.2518 15.5288 14.0306 15.4575C13.7306 15.3619 13.5431 15.3807 13.0893 15.2382C12.7293 15.1219 12.0431 14.34 12.0431 14.34Z" fill="#2E2F2F"/>
</svg>
