<svg width="48" height="48" viewBox="0 0 48 48" fill="none" xmlns="http://www.w3.org/2000/svg">
<path d="M16.8712 26.055C16.8712 26.055 21.3075 25.7925 20.6212 19.7737C19.935 13.755 17.7712 13.65 16.9275 10.6425C16.0837 7.63499 16.065 4.63124 15.66 4.41374C15.3487 4.24499 12.915 6.10124 12.915 6.10124C12.915 6.10124 10.6612 7.99499 10.485 7.47374C10.2375 6.73499 12.3862 3.30374 12.7012 2.61749C13.0162 1.93124 12.885 0.80624 11.4337 1.66874C10.1325 2.43749 2.35123 8.74124 2.51248 13.65C2.67373 18.5587 8.53123 24.0487 8.53123 24.0487L12.0675 20.5125L16.8712 26.055Z" fill="#4F3B37"/>
<path d="M25.4587 34.0088C25.4587 34.0088 29.5425 36.3675 30.5962 37.1775C31.65 37.9875 33.27 39.2888 33.27 39.2888C33.27 39.2888 32.5312 41.1525 31.7925 41.61C31.0537 42.0675 30.105 42.21 30.105 42.21C30.105 42.21 28.8375 43.5488 27.9562 43.6163C27.075 43.6838 26.3362 43.23 26.3362 43.23C26.3362 43.23 25.1737 43.6538 24.6825 43.6163C24.1912 43.5825 22.7475 42.4538 22.7475 42.4538L25.4587 34.0088Z" fill="url(#paint0_linear_63_387)"/>
<path d="M19.1925 23.1C19.1925 23.1 21.1275 23.2762 22.08 20.0737C23.0287 16.8712 22.8187 14.3362 24.6487 12.435C26.4787 10.5337 28.275 10.1475 30.2437 10.005C32.2162 9.86249 39.675 9.58124 41.5425 9.44249C43.4062 9.29999 44.955 8.80874 45.1312 9.19499C45.2625 9.48374 43.0537 13.2412 43.0537 13.2412C43.0537 13.2412 38.0925 13.3125 37.9875 14.3662C37.8825 15.4237 41.6925 14.85 41.7187 15.3862C41.7562 16.125 38.5162 20.2425 37.3537 21.405C36.1912 22.5675 35.2425 22.7062 34.8562 23.3062C34.47 23.9062 32.7787 29.0775 30.7725 30.9075C28.7662 32.7375 26.2312 32.88 26.2312 32.88C26.2312 32.88 27.7462 34.9912 27.2512 36.7875C26.76 38.5837 25.8787 40.9575 24.8212 42.1912C24.075 43.065 22.9012 43.8262 21.7237 42.9825C20.4112 42.0412 20.4937 40.1325 20.8087 38.97C21.1237 37.8075 20.9512 37.035 20.9512 37.035C20.9512 37.035 19.0762 38.9887 17.9587 39.9562C16.7812 40.9762 15.69 42.6675 14.1562 40.8C12.4387 38.7112 14.28 37.4925 14.985 36.5775C15.69 35.6625 15.9525 35.2762 15.9525 35.2762L13.4175 29.925L19.1925 23.1Z" fill="#70534C"/>
<path d="M9.24373 19.8525C8.47498 20.6212 6.44623 22.695 9.13873 25.0162C11.8312 27.3375 11.91 28.7212 12.6225 29.6962C13.3387 30.6787 13.9162 31.6237 14.3662 32.1C14.8162 32.5762 15.975 33.5512 16.3462 33.4462C16.7175 33.3412 15.9487 30.5437 16.1362 30.3825C16.3237 30.2212 18.3787 31.65 18.6975 31.44C19.0312 31.215 18.3262 28.5112 18.4875 28.3762C18.645 28.245 20.4862 29.5087 20.73 29.2987C21.075 29.01 19.6725 23.4112 19.5412 23.1225C19.47 22.9687 17.5425 21.5437 15.9 20.43C14.4375 19.44 13.8412 18.9787 12.4687 18.795C11.2012 18.6262 9.82123 19.2712 9.24373 19.8525Z" fill="#FFEAC8"/>
<path d="M8.87248 28.4063C9.02998 28.0088 9.21748 27.5738 10.245 26.8088C11.2762 26.0438 12.8962 24.9075 12.9375 24.5513C12.9787 24.2213 10.7812 24.435 10.1212 24.3825C9.46123 24.33 8.71498 24.2325 8.29123 23.8913C7.91248 23.5838 7.90498 23.2913 7.90498 23.2913C7.90498 23.2913 6.29248 24.4013 6.10123 25.6838C5.89123 27.1088 6.36373 28.1138 7.31623 28.8C8.26873 29.4863 8.66623 29.67 8.91373 29.5388C9.21748 29.3813 8.87248 28.4063 8.87248 28.4063Z" fill="#FFB903"/>
<path d="M8.19374 27.9412C8.24624 27.5587 8.38124 26.7712 9.18749 25.98C9.87374 25.305 11.0625 24.3712 11.3925 24.3712H12.315C12.315 24.3712 12.0525 24.9112 11.5762 25.215C11.1 25.5187 10.5 25.9837 9.74249 26.655C8.95124 27.3562 8.88374 28.3837 8.88374 28.3837C8.88374 28.3837 9.17249 29.2162 8.95124 29.4937C8.75249 29.73 8.14124 28.3275 8.19374 27.9412Z" fill="#FF8E01"/>
<path d="M10.8788 22.9688C10.9088 23.2163 11.1038 23.7075 11.79 23.5613C12.36 23.4413 12.78 22.665 12.5963 22.11C12.4463 21.6638 12.0825 21.57 11.8313 21.7275C11.58 21.885 10.8113 22.4288 10.8788 22.9688Z" fill="#302F2F"/>
<path d="M29.9812 41.7525C29.8987 41.8012 29.295 42.8625 28.185 43.1437C27.075 43.425 26.6362 42.8625 26.4075 42.8625C26.1787 42.8625 25.395 43.3462 24.675 43.275C24.1125 43.2187 23.1862 42.42 23.1862 42.42L22.8 43.035C22.8 43.035 23.6962 44.0025 24.7012 44.055C25.7025 44.1075 26.3362 43.6687 26.3362 43.6687C26.3362 43.6687 27.3225 44.1712 28.3612 43.9687C29.805 43.6875 30.3487 42.42 30.3487 42.42C30.3487 42.42 31.545 42.2962 32.3362 41.7C33.1275 41.1 33.84 39.5362 33.3112 39.2887C32.7825 39.0412 32.4937 40.3612 31.86 40.8712C31.2262 41.3812 30.21 41.6137 29.9812 41.7525Z" fill="#70534C"/>
<path d="M9.70874 41.8012C9.51374 41.3812 10.3087 39.3075 12.42 39.3787C14.5312 39.45 15.4987 41.0137 15.3075 42.5625C15.1125 44.1112 14.0925 44.6025 13.8487 44.4262C13.6012 44.25 13.3387 43.14 13.3387 43.14L12.2662 41.7862C12.2587 41.79 10.1137 42.6637 9.70874 41.8012ZM17.8725 44.1937C17.5837 43.6312 18.1987 42.3975 19.0687 41.9475C20.145 41.3887 20.94 41.3587 22.1662 42.3487C23.8125 43.6762 22.5187 46.0387 21.7875 46.3425C20.7712 46.7662 21.0225 46.3462 21.0412 45.8362C21.06 45.3262 20.5837 44.025 20.5837 44.025L17.8725 44.1937Z" fill="#FFB903"/>
<path d="M13.845 42.1725C13.995 42.7313 14.1337 44.3888 13.7662 44.3625C13.5187 44.3438 13.1925 43.3763 13.0537 43.0088C12.915 42.6413 12.0225 42.1013 11.6887 42.0863C11.355 42.0675 10.2 42.3075 10.1662 42.0863C10.095 41.6513 11.4787 40.995 12.0225 41.0138C12.4987 41.025 13.6837 41.5763 13.845 42.1725ZM17.8575 44.1113C17.8762 44.5125 18.9675 44.235 19.4062 44.2875C19.845 44.34 20.4 44.5575 20.6475 45.0675C20.7637 45.3075 20.8687 46.4663 21.1125 46.485C21.57 46.5188 21.6937 44.9438 21.6412 44.8013C21.4837 44.3738 20.8687 43.3125 19.6687 43.1963C19.035 43.1288 17.8462 43.9013 17.8575 44.1113Z" fill="#F4821E"/>
<defs>
<linearGradient id="paint0_linear_63_387" x1="25.7239" y1="33.9233" x2="28.8292" y2="43.3654" gradientUnits="userSpaceOnUse">
<stop offset="0.207" stop-color="#AC8979"/>
<stop offset="0.309" stop-color="#B59482"/>
<stop offset="0.485" stop-color="#CDB099"/>
<stop offset="0.714" stop-color="#F4DDBE"/>
<stop offset="0.771" stop-color="#FFEAC8"/>
</linearGradient>
</defs>
</svg>
