<svg width="48" height="48" viewBox="0 0 48 48" fill="none" xmlns="http://www.w3.org/2000/svg">
<path d="M37.3987 24.5137C37.9162 25.1812 38.5537 26.6175 39.1462 28.77C39.7387 30.9225 40.6687 33.0375 42.3 33C43.9312 32.9625 43.785 31.7062 44.0475 31.2075C44.2125 30.8962 44.4862 30.1462 46.0462 30.9975C47.6025 31.8487 47.0025 32.61 46.7325 33.2362C46.44 33.915 45.1612 36.24 42.135 36.1537C39.3337 36.0712 38.1862 34.6875 37.11 32.61C36.0337 30.5325 37.3987 24.5137 37.3987 24.5137Z" fill="#FE6A1F"/>
<path d="M38.3063 34.4737C38.3063 34.4737 39.015 34.2937 39.7538 33.6112C40.3838 33.03 40.9088 32.4 40.9088 32.4C40.9088 32.4 40.5338 31.9537 40.2413 31.4812C39.81 30.78 39.615 30.2137 39.615 30.2137L36.8325 32.16C36.8325 32.16 37.2788 32.8875 37.515 33.3562C37.83 34.0012 38.3063 34.4737 38.3063 34.4737Z" fill="#323130"/>
<path d="M7.99124 15.0825C7.99124 15.0825 7.91249 12.3 9.95624 11.8537C12.18 11.37 12.9225 13.8187 12.9225 13.8187L11.6625 15.4125L7.99124 15.0825ZM26.4262 34.2225C26.4262 34.2225 27.4387 36.8962 27.54 37.8937C27.735 39.855 26.025 40.2037 26.205 41.6025C26.325 42.5212 27.1275 42.7537 28.95 42.7537C31.2487 42.7537 32.3625 41.6775 32.3625 41.6775L33.18 31.8112L26.28 32.6287L26.4262 34.2225ZM10.6537 31.4287C10.6537 31.4287 9.59999 34.08 8.53874 35.4075C7.48124 36.7275 5.63249 38.3437 5.77124 40.6237C5.85749 42.0187 6.68249 42.6375 7.62749 42.825C8.60624 43.02 9.73499 42.7575 10.2562 41.535C10.7737 40.3125 10.7737 39.3825 10.7737 39.3825C10.7737 39.3825 13.0237 36.945 13.7287 36.2025C14.4337 35.46 15.7462 34.3012 15.7462 34.3012L10.6537 31.4287Z" fill="#FE6A1F"/>
<path d="M9.84747 37.4775C10.2637 36.9 9.73122 36.345 9.37497 36.03C8.90247 35.6138 8.49747 35.445 8.49747 35.445L7.69122 36.405C7.69122 36.405 8.17872 36.7237 8.53872 37.0575C8.84247 37.3387 9.48372 37.98 9.84747 37.4775ZM9.09372 34.6125C9.09372 34.6125 9.70497 35.0287 9.84372 35.1675C9.98247 35.3062 10.5825 35.7225 10.83 35.445C11.2012 35.0362 10.7662 34.4437 10.4812 34.095C10.2375 33.7912 9.77622 33.375 9.77622 33.375L9.09372 34.6125Z" fill="#333132"/>
<path d="M8.56502 40.7175C7.95377 41.0512 7.67627 41.6775 7.89752 42.2212C8.10002 42.72 9.06752 42.9712 9.93002 42.2362C10.3688 41.8612 10.485 40.9987 10.2225 40.7212C9.96002 40.4437 9.23627 40.3537 8.56502 40.7175ZM7.10627 41.4975C6.74252 41.4975 6.22877 41.7562 6.39752 42.2475C6.52127 42.6075 7.56377 42.9375 7.74752 42.3187C7.88627 41.8462 7.38377 41.4975 7.10627 41.4975Z" fill="#BB5D42"/>
<path d="M10.1063 29.9212L8.10378 28.8075C8.10378 28.8075 5.37003 28.98 3.69003 27.9562C2.11878 26.9962 1.05753 25.6575 0.832531 24.1725C0.607531 22.6875 0.641281 21.2437 0.903781 20.76C1.16253 20.2762 1.65003 20.1675 2.31753 19.9087C2.98503 19.65 3.99003 19.0425 3.99003 19.0425C3.99003 19.0425 4.13628 17.865 4.83003 16.875C5.86878 15.39 6.61878 15.2737 6.99003 15.0862C7.36128 14.9025 11.0325 14.715 11.0325 14.715L11.9213 14.64L13.035 12.7125C13.035 12.7125 14.4825 11.6737 16.2263 12.5287C17.97 13.3837 18.045 15.495 17.9325 16.2375C17.82 16.98 17.5613 17.5725 17.5988 17.8312C17.6175 17.9625 18.3863 18.6112 19.0838 19.3162C19.7663 20.0025 20.2575 20.5912 20.5425 20.7637C20.8313 20.9362 24.3863 20.3362 28.5825 20.6512C32.8238 20.97 35.6063 21.7762 37.1663 24.0037C38.7225 26.2275 38.7413 28.665 38.2988 31.26C37.8563 33.855 36.4425 36.4538 36.2963 36.8625C36.1463 37.2712 36.1463 40.1625 36.1463 40.905C36.1463 41.6475 36.4163 44.8013 33.9938 44.8425C32.6138 44.865 31.2825 45.09 30.7238 43.9387C30.1688 42.7875 30.6263 41.4075 30.6263 41.4075L31.7288 40.2037L31.5788 38.0887L29.355 35.9362L28.9463 34.305L24.6825 34.4887C24.6825 34.4887 21.195 35.0437 20.9738 35.3062C20.7525 35.5688 20.1938 39.1275 20.01 40.9425C19.8263 42.7612 18.9825 44.5125 18.3863 44.7712C17.7938 45.03 16.6463 45.4538 15.09 45.105C13.6688 44.7863 13.3913 43.4212 14.2425 42.3075C14.7863 41.5912 15.315 41.3325 15.315 41.3325C15.315 41.3325 15.2175 39.2738 15.1613 37.41C15.12 36.045 15.1425 34.7588 15.0488 34.5863C14.8275 34.1775 11.925 30.405 11.925 30.405L10.1063 29.9212Z" fill="#FF9613"/>
<path d="M41.6025 32.8725C41.6025 32.8725 41.5613 34.0725 41.4338 34.5825C41.2125 35.4862 40.8638 36.015 40.8638 36.015C40.8638 36.015 41.6438 36.24 42.7275 36.1837C43.7438 36.1275 44.4338 35.6887 44.4338 35.6887C44.4338 35.6887 43.9238 34.53 43.785 34.1662C43.6463 33.8062 43.215 32.76 43.215 32.76C43.215 32.76 42.9788 32.8987 42.4913 32.97C42.1915 33.0112 41.8862 32.9777 41.6025 32.8725ZM43.7588 32.1375C43.7588 32.1375 44.5388 32.3587 45.2063 32.6662C45.8738 32.9737 46.6538 33.4462 46.6538 33.4462C46.6538 33.4462 47.4038 31.9425 47.5425 30.8887C47.64 30.135 47.385 29.1675 46.6238 28.8862C45.6488 28.5262 44.6775 29.22 44.3138 30.3337C43.95 31.4475 43.7588 32.1375 43.7588 32.1375Z" fill="#323130"/>
<path d="M16.3837 16.8638C16.3837 16.8638 17.3025 14.7488 15.9675 14.025C14.6325 13.3013 13.8525 15.3038 13.8525 15.3038C14.6784 15.8522 15.5226 16.3725 16.3837 16.8638Z" fill="#FD6A1F"/>
<path d="M4.14374 19.815C4.14374 19.815 2.62874 20.2313 1.84874 20.7488C1.38374 21.0563 1.28624 21.6638 1.26374 22.335C1.19249 24.615 2.57249 26.9513 4.69874 27.6638C7.19249 28.4963 8.59499 27.885 8.59499 27.885C8.59499 27.885 7.56749 26.2988 6.98249 25.605C6.39749 24.9113 5.89874 24.435 5.70374 24.075C5.50874 23.715 5.28749 22.0875 4.97999 21.3638C4.67249 20.6325 4.14374 19.815 4.14374 19.815Z" fill="white"/>
<path d="M3.81002 22.0125C3.81002 22.0125 1.50002 22.7625 1.50002 22.8487C1.50002 22.9312 1.47377 24.045 1.63877 24.1837C1.80752 24.3225 2.25002 24.5737 2.64002 24.63C3.03002 24.6862 3.50252 24.6562 3.72377 24.8512C3.84752 24.9562 3.94502 25.7137 2.83502 25.965C1.72502 26.2162 0.802517 25.02 0.555017 24.1837C0.303767 23.3475 0.303767 21.57 0.945017 20.7075C1.39502 20.0925 3.28127 21.1762 3.81002 22.0125Z" fill="#323332"/>
<path d="M16.3125 42.8625C15.8888 42.8175 15.6488 43.0725 15.6113 44.0175C15.5775 44.8537 15.8738 45.2063 16.2263 45.255C16.785 45.3375 16.485 44.5313 16.5038 44.1975C16.5413 43.6388 16.9688 42.93 16.3125 42.8625ZM14.4788 42.6525C14.2163 42.4987 13.7288 42.6938 13.7213 43.755C13.7175 44.6138 14.2913 45.0488 14.67 44.9475C14.88 44.8913 14.5763 44.1338 14.49 43.8488C14.3438 43.3725 15.0075 42.96 14.4788 42.6525Z" fill="#FE6A1F"/>
<path d="M17.5238 44.9475C17.4525 45.24 19.2113 44.9063 19.8038 43.515C20.3963 42.1238 20.6925 39.0263 20.8238 37.8413C20.955 36.6525 21.2888 35.6325 21.4163 35.5613C21.5475 35.4863 22.8675 35.19 24.9638 34.95C26.8088 34.7362 28.4288 34.6162 28.4288 34.6162C28.4288 34.6162 28.5225 35.7112 29.4488 36.6562C30.375 37.6012 31.2675 38.2875 31.3388 38.4187C31.4138 38.55 31.44 40.065 31.32 40.3838C31.2938 40.4588 29.8575 41.5162 29.9025 42.9487C29.94 44.2087 31.035 44.76 31.6838 44.835C32.3325 44.91 32.6063 44.8875 32.1975 44.6438C31.7888 44.4038 30.7088 44.2387 30.7238 42.8925C30.7425 41.1262 32.0625 40.6988 32.1188 40.365C32.175 40.0312 32.0625 38.085 32.0063 37.9537C31.95 37.8225 30.6 36.6225 30.15 36.0637C29.3588 35.0775 29.5763 34.0238 29.4075 33.8738C29.2388 33.7238 26.3513 33.8513 24.8625 34.0238C23.8125 34.1438 21.0788 34.4775 20.505 35.1375C20.3213 35.3475 19.8675 39.5925 19.8 40.125C19.6875 41.0025 19.6575 42.435 19.0763 43.4062C18.5888 44.2312 17.6175 44.5575 17.5238 44.9475Z" fill="#BB5D42"/>
<path d="M31.7662 43.7662C31.785 44.5275 32.04 44.9625 32.595 44.925C33.15 44.8875 32.6625 44.0887 32.6325 43.83C32.5762 43.3462 33.0337 42.6862 32.6887 42.6075C32.1337 42.4762 31.7512 43.0987 31.7662 43.7662Z" fill="#FE6A1F"/>
<path d="M8.49372 20.2463C8.55747 20.955 8.29122 21.6038 7.72497 21.7163C7.15872 21.8325 6.58497 21.57 6.43497 20.6363C6.29247 19.755 6.70497 19.275 7.27122 19.1625C7.83747 19.05 8.41872 19.4175 8.49372 20.2463Z" fill="#313130"/>
<path d="M8.59503 17.7C9.31878 17.6025 9.18003 16.8488 9.06753 16.3275C8.95503 15.8063 8.77128 15.4575 8.77128 15.4575C8.77128 15.4575 9.38628 15.3525 9.69378 15.4838C9.81753 15.5363 9.93003 15.6525 10.05 15.7913C10.7175 16.5525 10.4625 17.8913 11.1113 17.9663C11.76 18.0413 11.775 17.0325 11.7375 16.4025C11.7 15.7725 11.6063 15.4575 11.7 15.2888C11.7938 15.12 12.27 15.24 12.3113 15.12C12.4313 14.7638 12.7013 13.8225 13.1288 13.3388C13.5563 12.855 14.2388 12.3713 15.0488 12.3825C15.615 12.39 16.26 12.5625 16.1325 12.465C15.7463 12.165 13.8525 11.49 12.57 12.4275C11.49 13.2188 11.31 14.2988 11.31 14.2988C11.31 14.2988 10.5413 14.2425 9.23253 14.34C8.26128 14.4113 7.39878 14.7225 6.93003 14.9513C6.00378 15.4013 5.56128 15.9525 5.56128 15.9525C5.56128 15.9525 6.28878 15.63 6.52128 15.5625C7.09128 15.3938 7.43628 15.6638 7.73253 16.3688C7.90878 16.8 8.04003 17.775 8.59503 17.7ZM11.0663 19.6313C10.7325 19.605 10.725 20.1225 10.68 20.6475C10.605 21.5363 10.5788 22.4438 10.5113 22.5525C10.3988 22.7363 9.80253 23.5463 9.46878 23.9138C9.30003 24.0975 8.73378 24.615 8.89503 24.8775C9.24753 25.4513 11.49 24.0075 11.6963 22.7438C11.8838 21.5888 11.8088 19.6875 11.0663 19.6313Z" fill="#33312F"/>
<path d="M12.4612 23.79C12.405 23.9587 11.7187 24.6562 10.9312 25.1962C10.1137 25.7512 9.29624 26.0062 9.55124 26.3775C9.86624 26.8425 11.2012 26.3962 11.925 26.0625C12.5062 25.7925 13.5375 24.975 13.7625 24.3937C13.9462 23.91 13.8562 22.2787 13.5787 21.3712C13.3012 20.4637 12.87 19.4437 12.5212 19.785C12.3225 19.98 12.51 20.6737 12.5625 21.6225C12.615 22.6237 12.5025 23.6625 12.4612 23.79Z" fill="#33312F"/>
<path d="M15.2287 39.1312C15.2287 39.1312 16.1925 38.8575 16.785 38.895C17.3775 38.9325 18.675 39.0637 18.9 38.9512C19.2637 38.7675 17.9662 37.7475 16.8187 37.635C15.6712 37.5225 15.1462 37.6575 15.1462 37.6575L15.2287 39.1312ZM15.1312 36.1425C15.1312 36.1425 15.4312 35.805 16.5637 35.8237C17.6962 35.8425 18.9337 36.0037 18.8962 35.6137C18.8587 35.2237 17.175 34.4325 16.4475 34.3912C16.0012 34.365 14.9925 34.5037 14.9925 34.5037L15.1312 36.1425Z" fill="#333132"/>
<path d="M10.44 29.4375C10.44 29.4375 11.7113 28.1175 12.405 27.5475C13.4438 26.6962 15.075 25.3237 15.1125 23.2087C15.15 21.0937 14.1488 19.35 13.9613 19.0162C13.7775 18.6825 13.2188 17.5687 13.8488 17.1262C14.4788 16.68 15.2888 16.7925 16.6688 18.2775C18.1163 19.8337 19.71 22.8412 19.71 22.8412C19.71 22.8412 18.8588 25.215 17.04 26.5875C16.3725 27.09 15.66 27.3037 15.1688 27.7012C14.3213 28.3875 13.9875 29.3362 13.89 30.2775C13.5938 33.0975 14.5238 33.075 14.8838 33.795C15.1388 34.3125 15.195 35.7337 15.135 35.7825C14.82 36.0487 13.7438 34.8937 13.56 34.7062C13.3763 34.5225 12.78 33.8887 12.78 33.8887C12.78 33.8887 12.7425 34.5562 12.4838 34.5562C12.1313 34.5562 11.1863 33.5925 10.7025 32.5912C10.2188 31.59 9.66376 30.6637 9.14626 29.9212C8.92126 29.5987 8.04376 28.8262 8.04376 28.8262C8.04376 28.8262 8.37001 28.4737 9.00001 28.5862C9.62251 28.695 10.44 29.4375 10.44 29.4375Z" fill="#FDEDCC"/>
<path d="M15.8362 20.4262C15.2737 20.715 16.1175 23.5275 15.705 24.5812C15.4987 25.1062 14.8162 26.4187 15.2962 26.6962C15.78 26.9737 17.28 25.5075 17.4862 24.6C17.6925 23.6925 16.56 20.055 15.8362 20.4262ZM15.465 30.9412C15.465 31.7587 18.15 31.665 18.15 31.665C18.15 31.665 19.845 33.1687 20.2125 32.9062C20.6587 32.5912 20.49 32.145 20.1375 31.59C19.5825 30.7162 19.2487 30.2175 18.6337 29.9587C18.0787 29.7225 16.9837 30.0412 16.41 30.18C15.69 30.3562 15.465 30.675 15.465 30.9412ZM19.065 25.32C18.7312 25.7287 19.1812 26.0962 19.6012 26.7487C19.9987 27.3637 20.8725 28.53 20.8725 28.53C20.8725 28.53 20.7525 31.1625 21.0862 31.4025C21.4762 31.68 21.975 30.885 22.2187 30.2137C22.4625 29.5425 22.4775 28.6912 22.4212 28.1737C22.365 27.6562 22.0125 26.82 20.7487 25.9162C19.7812 25.23 19.23 25.1175 19.065 25.32ZM20.8237 20.7787C20.8237 20.7787 21.585 21.9487 21.9937 23.0587C22.4025 24.1725 22.8037 25.38 22.95 26.2687C23.0287 26.745 23.2762 27.7725 23.6437 27.825C24.015 27.8812 24.2737 26.835 24.3825 25.6687C24.495 24.4575 24.3487 22.725 24.1462 21.945C23.9437 21.165 23.7 20.5762 23.7 20.5762C23.7 20.5762 23.0212 20.565 22.1962 20.61C21.4762 20.6475 20.8237 20.7787 20.8237 20.7787ZM26.0362 20.535C26.0362 20.535 26.4412 22.065 26.5237 24.2475C26.58 25.6762 26.76 28.155 27.1912 28.155C27.7462 28.155 28.2487 26.2687 28.47 24.135C28.6912 22.0012 28.6387 20.6287 28.6387 20.6287C28.6387 20.6287 27.9637 20.5537 27.3712 20.5312C26.6362 20.5087 26.0362 20.535 26.0362 20.535ZM30.96 28.185C31.71 28.2825 32.4187 26.0812 32.7525 24.7087C33.0862 23.3362 33.3037 21.4275 33.3037 21.4275C33.3037 21.4275 32.7112 21.2587 32.1 21.12C31.395 20.9587 30.765 20.8837 30.765 20.8837C30.765 20.8837 30.8887 22.1625 30.8587 24.2437C30.84 25.3575 30.5025 28.1287 30.96 28.185ZM35.355 22.3162C35.355 22.3162 35.1037 25.095 34.9387 25.6687C34.77 26.2425 33.3375 28.2975 33.63 28.6312C34.0125 29.07 35.8987 27.5325 36.4537 26.31C37.0087 25.0875 37.0987 23.865 37.0987 23.865C37.0987 23.865 36.885 23.4562 36.2587 22.9425C35.7712 22.5412 35.355 22.3162 35.355 22.3162ZM21.405 35.5725C21.405 35.5725 23.1075 33.1462 23.5162 32.0737C23.925 30.9975 24.6487 29.2312 25.2787 29.07C25.9275 28.9012 25.74 30.6112 25.335 31.9462C24.945 33.225 24.2587 35.025 24.2587 35.025C24.2587 35.025 23.5612 35.1375 22.965 35.2275C21.7425 35.4112 21.405 35.5725 21.405 35.5725ZM26.0212 34.8225C26.0212 34.8225 27.2925 32.4037 27.6337 31.4137C27.8475 30.7987 28.2975 29.085 28.8712 29.1037C29.445 29.1225 29.4075 30.5512 29.2425 31.4212C29.0737 32.2912 28.425 34.6125 28.425 34.6125C28.425 34.6125 27.915 34.6537 27.3675 34.71C26.9175 34.755 26.0212 34.8225 26.0212 34.8225ZM30.2662 33.4687C30.36 33.78 32.9025 33.6262 33.7425 33.0712C35.3437 32.01 36.1612 29.1675 35.6062 29.205C35.0512 29.2425 33.3637 31.1325 32.7675 31.5225C32.175 31.9087 30.0787 32.8537 30.2662 33.4687ZM28.875 35.865C28.875 35.865 31.2525 36.27 32.6587 35.9362C33.9112 35.64 34.995 34.2525 35.385 34.4775C35.775 34.6987 35.2725 36.5925 33.495 37.2037C31.7737 37.7962 30.435 37.5375 30.435 37.5375C30.435 37.5375 29.835 37.1062 29.5462 36.7575C29.0962 36.225 28.875 35.865 28.875 35.865Z" fill="#33312F"/>
</svg>
